# xmcd CD database file
#
# Track frame offsets:
#	151
#	18502
#	35269
#	66241
#
# Disc length: 1541 seconds
#
# Revision: 0
# Processed by: cddbd v1.4PL0 Copyright (c) Steve Scherf et al.
# Submitted via: CDex 1.50
#
DISCID=2c060304
DTITLE=Texas - Carnival Girl ft Kardinal Offishall
DYEAR=2003
DGENRE=Rhythmic Soul
TTITLE0=Carnival Girl ft Kardinal Offishall
TTITLE1=Night for Day
TTITLE2=Carnival of Dub
TTITLE3=Carnival Girl (Video)
EXTD=YEAR: 2003
EXTT0=
EXTT1=
EXTT2=
EXTT3=
PLAYORDER=
